<svg width="180" height="180" viewBox="0 0 180 180" fill="none" xmlns="http://www.w3.org/2000/svg">
<path d="M0 12C0 5.37258 5.37258 0 12 0H168C174.627 0 180 5.37258 180 12V168C180 174.627 174.627 180 168 180H12C5.37258 180 0 174.627 0 168V12Z" fill="#171717"/>
<path d="M121.453 74.4062V103.703H109.734V74.4062C109.734 64.6406 104.852 59.7578 95.0859 59.7578H83.3672C73.6016 59.7578 68.7188 64.6406 68.7188 74.4062V106.633C68.7188 116.398 73.6016 121.281 83.3672 121.281H121.453V133H83.3672C65.7891 133 57 124.211 57 106.633V74.4062C57 56.8281 65.7891 48.0391 83.3672 48.0391H95.0859C112.664 48.0391 121.453 56.8281 121.453 74.4062ZM106.805 74.4062V103.703H95.0859V77.3359C95.0859 75.3828 94.1094 74.4062 92.1562 74.4062H86.2969C84.3438 74.4062 83.3672 75.3828 83.3672 77.3359V103.703C83.3672 105.656 84.3438 106.633 86.2969 106.633H121.453V118.352H83.3672C75.5547 118.352 71.6484 114.445 71.6484 106.633V74.4062C71.6484 66.5938 75.5547 62.6875 83.3672 62.6875H95.0859C102.898 62.6875 106.805 66.5938 106.805 74.4062ZM127.312 119.328H140.984V133H127.312V119.328Z" fill="white"/>
</svg>
