<svg width="364" height="32" viewBox="0 0 364 32" fill="none" xmlns="http://www.w3.org/2000/svg">
<path d="M0 4C0 1.79086 1.79086 0 4 0H28C30.2091 0 32 1.79086 32 4V28C32 30.2091 30.2091 32 28 32H4C1.79086 32 0 30.2091 0 28V4Z" fill="#171717"/>
<path d="M20.3125 13.625V18.3125H18.4375V13.625C18.4375 12.0625 17.6562 11.2812 16.0938 11.2812H14.2188C12.6562 11.2812 11.875 12.0625 11.875 13.625V18.7812C11.875 20.3438 12.6562 21.125 14.2188 21.125H20.3125V23H14.2188C11.4062 23 10 21.5938 10 18.7812V13.625C10 10.8125 11.4062 9.40625 14.2188 9.40625H16.0938C18.9062 9.40625 20.3125 10.8125 20.3125 13.625ZM17.9688 13.625V18.3125H16.0938V14.0938C16.0938 13.7812 15.9375 13.625 15.625 13.625H14.6875C14.375 13.625 14.2188 13.7812 14.2188 14.0938V18.3125C14.2188 18.625 14.375 18.7812 14.6875 18.7812H20.3125V20.6562H14.2188C12.9688 20.6562 12.3438 20.0312 12.3438 18.7812V13.625C12.3438 12.375 12.9688 11.75 14.2188 11.75H16.0938C17.3438 11.75 17.9688 12.375 17.9688 13.625ZM21.25 20.8125H23.4375V23H21.25V20.8125Z" fill="white"/>
<path d="M59.2031 9.90625V20.4531H54.9844V9.90625C54.9844 6.39062 53.2266 4.63281 49.7109 4.63281H45.4922C41.9766 4.63281 40.2188 6.39062 40.2188 9.90625V21.5078C40.2188 25.0234 41.9766 26.7812 45.4922 26.7812H59.2031V31H45.4922C39.1641 31 36 27.8359 36 21.5078V9.90625C36 3.57812 39.1641 0.414062 45.4922 0.414062H49.7109C56.0391 0.414062 59.2031 3.57812 59.2031 9.90625ZM53.9297 9.90625V20.4531H49.7109V10.9609C49.7109 10.2578 49.3594 9.90625 48.6562 9.90625H46.5469C45.8438 9.90625 45.4922 10.2578 45.4922 10.9609V20.4531C45.4922 21.1562 45.8438 21.5078 46.5469 21.5078H59.2031V25.7266H45.4922C42.6797 25.7266 41.2734 24.3203 41.2734 21.5078V9.90625C41.2734 7.09375 42.6797 5.6875 45.4922 5.6875H49.7109C52.5234 5.6875 53.9297 7.09375 53.9297 9.90625ZM83.4609 21.5078C83.4609 27.8359 80.2969 31 73.9688 31H70.8047C64.4766 31 61.3125 27.8359 61.3125 21.5078V0.414062H65.5312V21.5078C65.5312 25.0234 67.2891 26.7812 70.8047 26.7812H73.9688C77.4844 26.7812 79.2422 25.0234 79.2422 21.5078V0.414062H83.4609V21.5078ZM78.1875 21.5078C78.1875 24.3203 76.7812 25.7266 73.9688 25.7266H70.8047C67.9922 25.7266 66.5859 24.3203 66.5859 21.5078V0.414062H70.8047V20.4531C70.8047 21.1562 71.1562 21.5078 71.8594 21.5078H72.9141C73.6172 21.5078 73.9688 21.1562 73.9688 20.4531V0.414062H78.1875V21.5078ZM85.5703 9.90625C85.5703 3.57812 88.7344 0.414062 95.0625 0.414062H107.719V4.63281H95.0625C91.5469 4.63281 89.7891 6.39062 89.7891 9.90625V21.5078C89.7891 25.0234 91.5469 26.7812 95.0625 26.7812H107.719V31H95.0625C88.7344 31 85.5703 27.8359 85.5703 21.5078V9.90625ZM90.8438 15.1797V9.90625C90.8438 7.09375 92.25 5.6875 95.0625 5.6875H107.719V9.90625H96.1172C95.4141 9.90625 95.0625 10.2578 95.0625 10.9609H104.555V15.1797H90.8438ZM90.8438 16.2344H104.555V20.4531H95.0625C95.0625 21.1562 95.4141 21.5078 96.1172 21.5078H107.719V25.7266H95.0625C92.25 25.7266 90.8438 24.3203 90.8438 21.5078V16.2344ZM109.828 0.414062H134.086V4.63281H109.828V0.414062ZM109.828 5.6875H121.43V31H117.211V9.90625H109.828V5.6875ZM122.484 31V5.6875H134.086V9.90625H126.703V31H122.484ZM144.246 25.7266L155.109 4.63281H136.195V0.414062H161.508L150.891 21.5078H161.508V25.7266H144.246ZM136.195 31L146.531 9.90625H136.195V5.6875H153.527L142.594 26.7812H161.508V31H136.195ZM176.098 26.7812H188.578L180.141 5.33594C179.906 4.86719 179.438 4.63281 178.734 4.63281C178.148 4.63281 177.68 4.86719 177.328 5.33594L167.836 31H163.617L173.461 3.92969C174.633 1.58594 176.391 0.414062 178.734 0.414062C181.43 0.414062 183.188 1.58594 184.008 3.92969L194.203 31H176.098V26.7812ZM176.098 25.7266V23.4414L173.109 31H168.891L178.031 6.39062C178.148 5.92187 178.383 5.6875 178.734 5.6875C179.086 5.6875 179.32 5.92187 179.438 6.39062L186.82 25.7266H176.098ZM178.734 16.5859L176.801 21.5078H180.668L178.734 16.5859ZM200.531 0.414062V21.5078C200.531 25.0234 202.289 26.7812 205.805 26.7812H220.57V31H205.805C199.477 31 196.312 27.8359 196.312 21.5078V0.414062H200.531ZM205.805 0.414062V20.4531C205.805 21.1562 206.156 21.5078 206.859 21.5078H220.57V25.7266H205.805C202.992 25.7266 201.586 24.3203 201.586 21.5078V0.414062H205.805ZM222.68 9.90625C222.68 3.57812 225.844 0.414062 232.172 0.414062H244.828V4.63281H232.172C228.656 4.63281 226.898 6.39062 226.898 9.90625V21.5078C226.898 25.0234 228.656 26.7812 232.172 26.7812H244.828V31H232.172C225.844 31 222.68 27.8359 222.68 21.5078V9.90625ZM227.953 9.90625C227.953 7.09375 229.359 5.6875 232.172 5.6875H244.828V9.90625H233.227C232.523 9.90625 232.172 10.2578 232.172 10.9609V20.4531C232.172 21.1562 232.523 21.5078 233.227 21.5078H244.828V25.7266H232.172C229.359 25.7266 227.953 24.3203 227.953 21.5078V9.90625ZM270.141 9.90625V21.5078C270.141 27.8359 266.977 31 260.648 31H256.43C250.102 31 246.938 27.8359 246.938 21.5078V9.90625C246.938 3.57812 250.102 0.414062 256.43 0.414062H260.648C266.977 0.414062 270.141 3.57812 270.141 9.90625ZM264.867 9.90625V21.5078C264.867 24.3203 263.461 25.7266 260.648 25.7266H256.43C253.617 25.7266 252.211 24.3203 252.211 21.5078V9.90625C252.211 7.09375 253.617 5.6875 256.43 5.6875H260.648C263.461 5.6875 264.867 7.09375 264.867 9.90625ZM265.922 9.90625C265.922 6.39062 264.164 4.63281 260.648 4.63281H256.43C252.914 4.63281 251.156 6.39062 251.156 9.90625V21.5078C251.156 25.0234 252.914 26.7812 256.43 26.7812H260.648C264.164 26.7812 265.922 25.0234 265.922 21.5078V9.90625ZM260.648 10.9609C260.648 10.2578 260.297 9.90625 259.594 9.90625H257.484C256.781 9.90625 256.43 10.2578 256.43 10.9609V20.4531C256.43 21.1562 256.781 21.5078 257.484 21.5078H259.594C260.297 21.5078 260.648 21.1562 260.648 20.4531V10.9609ZM294.398 21.5078C294.398 27.8359 291.234 31 284.906 31H281.742C275.414 31 272.25 27.8359 272.25 21.5078V0.414062H276.469V21.5078C276.469 25.0234 278.227 26.7812 281.742 26.7812H284.906C288.422 26.7812 290.18 25.0234 290.18 21.5078V0.414062H294.398V21.5078ZM289.125 21.5078C289.125 24.3203 287.719 25.7266 284.906 25.7266H281.742C278.93 25.7266 277.523 24.3203 277.523 21.5078V0.414062H281.742V20.4531C281.742 21.1562 282.094 21.5078 282.797 21.5078H283.852C284.555 21.5078 284.906 21.1562 284.906 20.4531V0.414062H289.125V21.5078ZM296.508 0.414062H320.766V4.63281H296.508V0.414062ZM296.508 5.6875H308.109V31H303.891V9.90625H296.508V5.6875ZM309.164 31V5.6875H320.766V9.90625H313.383V31H309.164ZM327.094 0.414062V21.5078C327.094 25.0234 328.852 26.7812 332.367 26.7812H347.133V31H332.367C326.039 31 322.875 27.8359 322.875 21.5078V0.414062H327.094ZM332.367 0.414062V20.4531C332.367 21.1562 332.719 21.5078 333.422 21.5078H347.133V25.7266H332.367C329.555 25.7266 328.148 24.3203 328.148 21.5078V0.414062H332.367Z" fill="black"/>
</svg>
